<svg width="512" height="512" viewBox="0 0 512 512" fill="none" xmlns="http://www.w3.org/2000/svg">
<g clip-path="url(#clip0_1_2)">
<path fill-rule="evenodd" clip-rule="evenodd" d="M73.9087 73.9087C42.6667 105.151 42.6667 155.434 42.6667 256C42.6667 356.565 42.6667 406.85 73.9087 438.091C105.151 469.333 155.434 469.333 256 469.333C356.565 469.333 406.85 469.333 438.091 438.091C469.333 406.85 469.333 356.565 469.333 256C469.333 155.434 469.333 105.151 438.091 73.9087C406.85 42.6667 356.565 42.6667 256 42.6667C155.434 42.6667 105.151 42.6667 73.9087 73.9087ZM264.48 299.488L316.992 351.998C322.428 357.436 325.148 360.154 328.179 361.41C332.224 363.085 336.766 363.085 340.811 361.41C343.842 360.154 346.562 357.436 351.998 351.998C357.436 346.562 360.154 343.842 361.41 340.811C363.085 336.766 363.085 332.224 361.41 328.179C360.154 325.148 357.436 322.428 351.998 316.992L299.488 264.48L315.524 248.446C331.94 232.03 340.147 223.821 338.21 214.999C336.273 206.176 325.38 202.163 303.595 194.137L230.94 167.369C187.481 151.358 165.751 143.353 154.552 154.552C143.353 165.751 151.358 187.481 167.369 230.94L194.137 303.595C202.163 325.38 206.176 336.273 214.999 338.21C223.821 340.147 232.03 331.94 248.446 315.524L264.48 299.488Z" fill="url(#paint0_linear_1_2)"/>
</g>
<defs>
<linearGradient id="paint0_linear_1_2" x1="45" y1="255" x2="470" y2="256.5" gradientUnits="userSpaceOnUse">
<stop stop-color="#A855F7"/>
<stop offset="1" stop-color="#EC4899"/>
</linearGradient>
<clipPath id="clip0_1_2">
<rect width="512" height="512" fill="white"/>
</clipPath>
</defs>
</svg>
